<svg xmlns="http://www.w3.org/2000/svg" xmlns:xlink="http://www.w3.org/1999/xlink" version="1.1" width="256" height="256" viewBox="0 0 256 256" xml:space="preserve">
<g style="stroke: none; stroke-width: 0; stroke-dasharray: none; stroke-linecap: butt; stroke-linejoin: miter; stroke-miterlimit: 10; fill: none; fill-rule: nonzero; opacity: 1;" transform="translate(1.4065934065934016 1.4065934065934016) scale(2.81 2.81)">
	<path d="M 45 0 C 25.463 0 9.625 15.838 9.625 35.375 c 0 8.722 3.171 16.693 8.404 22.861 L 45 90 l 26.97 -31.765 c 5.233 -6.167 8.404 -14.139 8.404 -22.861 C 80.375 15.838 64.537 0 45 0 z" style="stroke: none; stroke-width: 1; stroke-dasharray: none; stroke-linecap: butt; stroke-linejoin: miter; stroke-miterlimit: 10; fill: rgb(242,90,90); fill-rule: nonzero; opacity: 1;" transform=" matrix(1 0 0 1 0 0) " stroke-linecap="round"/>
	<circle cx="45.001" cy="34.131" r="23.011" style="stroke: none; stroke-width: 1; stroke-dasharray: none; stroke-linecap: butt; stroke-linejoin: miter; stroke-miterlimit: 10; fill: rgb(203,242,247); fill-rule: evenodd; opacity: 1;" transform="  matrix(1 0 0 1 0 0) "/>
	<path d="M 39.6 45.916 c -0.024 0 -0.048 0 -0.072 -0.002 c -0.622 -0.029 -1.161 -0.441 -1.354 -1.033 l -4.778 -14.653 l -2.921 4.7 c -0.274 0.44 -0.755 0.708 -1.274 0.708 h -4.144 c -0.829 0 -1.5 -0.671 -1.5 -1.5 s 0.671 -1.5 1.5 -1.5 h 3.31 l 4.182 -6.728 c 0.308 -0.495 0.876 -0.767 1.454 -0.697 c 0.579 0.07 1.065 0.47 1.246 1.024 l 4.553 13.961 l 8.822 -20.258 c 0.246 -0.567 0.795 -0.931 1.438 -0.9 c 0.619 0.025 1.158 0.429 1.357 1.016 l 5.835 17.176 l 2.081 -3.814 c 0.263 -0.481 0.768 -0.781 1.316 -0.781 h 4.293 c 0.828 0 1.5 0.671 1.5 1.5 s -0.672 1.5 -1.5 1.5 h -3.402 l -3.293 6.033 c -0.285 0.522 -0.861 0.823 -1.445 0.776 c -0.593 -0.051 -1.1 -0.448 -1.291 -1.012 l -5.687 -16.741 l -8.85 20.324 C 40.736 45.564 40.194 45.916 39.6 45.916 z" style="stroke: none; stroke-width: 1; stroke-dasharray: none; stroke-linecap: butt; stroke-linejoin: miter; stroke-miterlimit: 10; fill: rgb(242,90,90); fill-rule: nonzero; opacity: 1;" transform=" matrix(1 0 0 1 0 0) " stroke-linecap="round"/>
</g>
</svg>